<svg xmlns="http://www.w3.org/2000/svg" width="304" height="286" viewBox="0 0 304 286">
  <rect width="304" height="286" rx="54" fill="#0F1015"/>

  <!-- J -->
  <path fill="#FFFFFF"
    d="M 104 78
       H 76
       V 169
       C 76 172.5 74.8 175.2 72 177
       C 69.2 179.8 66.2 181.8 63 183
       C 58.4 184.2 53.7 183.9 49 182
       L 39 174
       L 21 192
       C 23 195.6 25.3 198.2 28 200
       C 30.7 201.9 33.3 203.6 36 205
       C 40.5 207.5 45.6 208.8 51 209
       H 63
       C 67.3 208.8 71 208.1 74 207
       C 79.7 204.9 84.7 202.2 89 199
       C 93.2 195.5 96.5 191.5 99 187
       C 102.3 181.5 104 176.5 104 172
       Z"/>
       
  <!-- N -->
  <path fill="#FFFFFF"
    d="M 125 78
       V 207
       H 153
       L 154 130
       L 214 207
       H 234
       V 78
       H 206
       L 205 155
       L 145 78
       Z"/>

  <!-- Dot -->
  <circle cx="262.900" cy="195.900" r="11.996" fill="#c9a84c"/>
</svg>