<svg xmlns="http://www.w3.org/2000/svg" width="304" height="286" viewBox="0 0 304 286">
  <rect width="304" height="286" rx="54" fill="#0F1015"/>

  <!-- J -->
  <path fill="#FFFFFF" d="
    M104 74
    H76
    V165
    C76 168.5 74.8 171.2 72 173
    C69.2 175.8 66.2 177.8 63 179
    C58.4 180.2 53.7 179.9 49 178
    L39 170
    L21 188
    C23 191.6 25.3 194.2 28 196
    C30.7 197.9 33.3 199.6 36 201
    C40.5 203.5 45.6 204.8 51 205
    H63
    C67.3 204.8 71 204.1 74 203
    C79.7 200.9 84.7 198.2 89 195
    C93.2 191.5 96.5 187.5 99 183
    C102.3 177.5 104 172.5 104 168
    Z"/>

  <!-- N -->
  <path fill="#FFFFFF" d="
    M125 74
    V203
    H153
    L154 126
    L214 203
    H234
    V74
    H206
    L205 151
    L145 74
    Z"/>

  <!-- Dot -->
  <circle cx="262.900" cy="191.900" r="11.996" fill="#838CF1"/>
</svg>
